<?xml version="1.0" encoding="UTF-8" standalone="no"?>
<svg xmlns="http://www.w3.org/2000/svg" xmlns:xlink="http://www.w3.org/1999/xlink" version="1.1" width="3080" height="512" viewBox="0 0 512 512">
	<defs>
		<filter id="filter" style="color-interpolation-filters:sRGB;">
			<!-- metal texture -->
			<feTurbulence type="turbulence" baseFrequency="0.057" numOctaves="4" stdDeviation="5.5" seed="2" result="turbulence" />
			<feGaussianBlur in="SourceGraphic" stdDeviation="2.1" />
			<feComposite in2="turbulence" operator="out" />
			<feComposite in="SourceAlpha" operator="arithmetic" k1="0.1" k3="1.3" k4="-0.05" />
			<feBlend mode="multiply" result="texture" />
			<!-- heightmap -->
			<feGaussianBlur in="SourceGraphic" stdDeviation="16" result="bevel" />
			<feGaussianBlur in="turbulence" stdDeviation="2.5" result="damage" />
			<feTurbulence type="fractalNoise" baseFrequency="0.758" result="noise" />
			<feComposite in="bevel" in2="damage" operator="arithmetic" k1="-0.27" k2="1.07" />
			<feComposite in2="noise" operator="arithmetic" k1="0.04" k2="1" />
			<!-- lighting -->
			<feSpecularLighting lighting-color="rgb(250,221,140)" specularConstant="0.52" specularExponent="12.2" surfaceScale="4.46">
				<fePointLight x="-5000" y="-10000" z="20000" />
			</feSpecularLighting>
			<feComposite in2="texture" operator="in" />
			<feComposite in="texture" operator="arithmetic" k1="-1" k2="2.5" k3="3.5" />
			<feBlend mode="multiply" result="render" />
			<!-- drop shadow -->
			<feFlood in="render" flood-color="rgb(0,0,0)" flood-opacity="0.7" />
			<feComposite in2="render" operator="in" />
			<feGaussianBlur stdDeviation="6" />
			<feOffset dy="8" dx="8" />
			<feComposite in="render" operator="over" />
		</filter>
	</defs>
	<g transform="translate(-1284,-540.36229)">
		<g style="fill:#6c5448;filter:url(#filter)">
			<path id="A" d="M 116.0845,590.87265 C -32.603186,798.42548 83.614264,968.19411 163.49521,1032.1229 58.066644,878.12266 81.173804,668.239 234.25414,595.7923 c 11.0416,-5.22554 22.76541,2.99318 22.76541,15.33343 l 0,50.96765 c 0,10.02929 -10.04898,13.64232 -17.65866,13.41719 l -75.95342,-4.4576 -17.57589,38.42734 c 12.23506,-4.35765 20.32134,-7.27116 36.24098,-7.24866 l 74.94699,0 0,229.89682 c 0,22.00113 -13.74675,42.34763 -32.27433,55.2634 l 120.21428,0 C 320,970.18394 322.04513,955.31594 322.04513,922.1768 l 0,-296.34739 c 0,-22.20841 2.74871,-33.06708 28.71568,-60.59975 l -259.775446,0 c 18.809936,9.45023 30.903056,17.54131 25.099136,25.64299 z" />
			<path id="r" d="m 447.84504,987.36083 -89.45684,0 c 5.95515,-1.70147 17.52681,-14.10841 17.52681,-23.77023 l 0,-236.04719 c 0,-9.72715 -15.06101,-22.81265 -18.08766,-22.43432 36.84559,-19.60349 75.68201,-41.12149 119.74316,-43.46648 85.1415,-4.53134 100.98657,32.8143 114.13459,71.78981 -35.15339,2.61782 -61.36691,16.61367 -84.96998,33.9319 143.50872,57.39837 93.03391,214.84454 20.19089,238.92538 68.74166,-82.21662 65.27937,-158.13863 -71.77572,-222.41409 l 73.41017,-56.46828 c 11.75669,-9.04344 -5.3329,-53.34609 -44.08954,-47.35264 -26.63468,4.11887 -63.9677,22.94162 -63.9677,49.45172 l 0,233.03647 c 0,11.19884 15.5629,23.07033 27.34182,24.81795 z" />
			<path id="x" d="m 666.2992,968.79444 c -13.84095,7.09775 -27.44251,21.72604 -51.03807,19.06917 -20.69554,-26.55477 -12.60682,-67.98086 25.79946,-108.80643 l 71.22896,-75.71582 c -33.20231,-23.16431 -67.32583,-44.63974 -109.3673,-51.59893 15.40443,-17.12997 28.70956,-38.28317 42.62521,-71.78981 18.3162,38.90136 67.81398,61.17255 106.563,89.17641 13.79206,-24.07993 57.14416,-65.09432 -7.29115,-81.3244 17.82739,-12.4372 35.88399,-25.63846 49.35549,-23.55604 11.84447,23.78662 19.36102,46.0519 -27.48204,113.85416 113.08425,103.5602 63.92543,167.91165 0.56086,228.83005 22.19844,-73.25181 88.98266,-109.73231 -40.38177,-191.81343 l -69.54638,71.22895 c -42.27537,43.29817 -27.60242,66.40833 8.97373,82.44612 z" />
			<path id="L" d="m 935.65762,611.20863 0,321.00274 c 0,22.00113 -9.74675,42.34763 -28.27433,55.2634 l 178.21431,0 c 21.3368,0 24.9033,8.28274 35.1785,21.98763 22.9116,-43.85672 36.0536,-66.67195 49.6429,-110.11398 -39.3914,45.96777 -85.2666,67.80678 -111.6786,67.82142 -28.5506,0.0158 -58.0572,-9.51697 -58.0572,-44.91014 l 0,-296.34739 c 0,-22.20841 2.7487,-33.06708 28.7157,-60.59975 l -119.77547,0 C 925,581.99713 935.65762,586.9882 935.65762,611.20863 Z" />
			<path id="i" d="m 1170.7231,987.28806 86.0934,0 c -7.2358,-1.72874 -15.3027,-19.12798 -15.3027,-32.39007 l 0,-251.76411 c 0,-15.64804 10.5695,-33.97984 19.6311,-38.0723 l -91.2149,0 c 8.9815,2.80273 20.6225,22.50175 20.6225,34.93374 l 0,250.60849 c 0,16.34959 -11.8598,33.86487 -19.8294,36.68425 z" />
			<path id="b" d="m 1393.2559,664.38646 c -57.2383,0.66126 -123.0588,46.60929 -121.2305,47.67579 0,0 17.1074,14.82584 17.1074,24.67773 l 0,217.61133 c 0,11.87259 -14.8633,32.81055 -14.8633,32.81055 l 69.5469,0 c 225.6591,0 157.2706,-193.88513 81.3242,-224.0625 19.8779,-17.39454 40.8902,-27.97482 62.2539,-36.45508 7.5064,-4.0419 -25.1677,-61.32613 -91.4199,-62.25586 -0.9039,-0.0127 -1.8102,-0.0124 -2.7187,-0.002 z m 1.6093,26.27344 c 17.5799,-0.34682 37.4281,16.77451 47.0996,29.81446 -24.3809,21.02668 -50.2248,42.54242 -79.08,65.06054 101.4223,31.64757 175.503,173.06999 -20.1914,182.27735 l 0,-232.75586 c 0,-22.67065 27.891,-42.36663 50.4785,-44.30664 0.5619,-0.0483 1.1262,-0.0787 1.6933,-0.0898 z" />
			<path id="e" d="m 1695,997.36227 c -31.2005,27.14783 -276.5128,-118.14321 -152.0799,-307.31421 5.2327,-7.95505 -17.9474,-27.48204 -17.9474,-27.48204 96.3128,13.16548 115.1093,10.84125 196.3002,3.36515 l -25.2386,54.96407 c -57.5366,-57.40218 -92.9273,-26.22068 -122.267,29.16462 28.9063,2.85183 56.7755,6.39513 98.711,0.56086 l -24.6778,33.09061 c 2.3792,-3.17222 -10.8644,-13.05338 -21.3126,-12.89973 l -38.1383,0.56086 c -9.6718,0.14223 -21.043,9.432 -21.8735,19.06917 -10.2336,118.75158 93.7576,192.93011 128.5239,206.92064 z" />
			<use xlink:href="#r" transform="translate(1372.8274,-0.19829322)" />
			<path id="t" d="m 2140.2338,987.46702 -93.1024,0 c 0,0 21.3458,-22.93919 21.3126,-36.05917 l -0.5609,-221.53888 c -0.025,-9.70172 -12.3389,-26.36032 -12.3389,-26.36032 l 37.0167,-5.60858 c -23.5965,-4.80187 -37.0979,-24.28762 -107.6847,39.26005 8.9995,-28.18468 11.129,-51.78938 11.2172,-74.03324 0,0 33.2623,10.09544 48.2337,10.09544 l 97.5893,0 c 18.897,0 49.3555,-22.43431 49.3555,-22.43431 1.488,29.72547 0.1471,52.72064 10.6562,90.85897 -4.5313,0.45314 -43.758,-52.75855 -60.5726,-53.84235 -9.2684,-0.59741 -21.3126,8.65984 -21.3126,17.94745 l 0,245.65577 c 0,12.92139 20.1909,36.05917 20.1909,36.05917 z" />
			<path id="a" d="m 2275.2173,683.30931 c -114.0324,159.17766 -24.9022,289.37765 36.3606,338.40639 -80.856,-118.10687 -63.1345,-279.07213 54.2668,-334.63339 8.4681,-4.0076 17.4594,2.29555 17.4594,11.7596 l 0,39.08843 c 0,7.69172 -7.7068,10.46265 -13.5429,10.28999 l -58.2506,-3.41865 -13.4795,29.47093 c 9.3835,-3.342 15.585,-5.57644 27.7942,-5.55919 l 57.4788,0 0,176.31389 c 0,16.87321 -10.5428,32.47747 -24.7521,42.38294 l 92.1956,0 c -19.1422,-13.19719 -17.5736,-24.59984 -17.5736,-50.01516 l 0,-227.27654 c 0,-17.03221 2.108,-25.36 22.0227,-46.47552 l -199.2285,0 c 14.4258,7.24762 23.7003,13.45288 19.2491,19.66628 z" />
			<use xlink:href="#t" transform="translate(476.72487,0)" />
			<use xlink:href="#i" transform="translate(1516.7589,0)" />
			<path id="s" d="m 2983.7641,731.55155 c 10.6728,-17.00442 17.5341,-35.9146 36.4557,-48.79464 -76.8039,-35.72099 -153.9082,-39.59563 -232.1951,81.88525 110.9177,42.34008 282.6871,92.67526 152.5533,245.09484 190.4577,-141.38998 -5.2132,-246.83816 -95.3458,-293.32862 42.0085,-18.2903 85.7806,-54.3886 138.5319,15.14317 z" />
		</g>
	</g>
</svg>
