<?xml version="1.0" encoding="UTF-8" standalone="no"?>
<svg xmlns="http://www.w3.org/2000/svg" version="1.1" width="16" height="16" viewBox="0 0 16 16">
	<path d="M 5.2075831,15.965349 C 4.0067278,11.431462 2.7879971,4.5213339 7.3579129,3.3665889 c 0.3572722,-0.090277 2.255798,0.09029 2.255798,0.462552 l 0,2.516038 c 0,0.302546 -0.3881777,0.415826 -0.6175659,0.404746 L 5.9912317,6.6154559 5.4610336,8.6406869 C 5.8301191,8.5092329 6.074051,8.4220219 6.5542869,8.4220219 l 3.059424,0 0,4.4205121 c 0,0.663691 -0.1525452,2.024594 -0.7114522,2.414212 l 4.7531243,0 c 0.643651,0 0.751239,-0.100677 1.061205,0.312748 0.691155,-1.322995 0.844636,-2.383859 1.254572,-3.694341 -1.18829,1.386674 -2.180486,2.166701 -2.977236,2.167143 -0.861264,4.76e-4 -1.364053,-0.432288 -1.364053,-1.499966 l 0,-10.9049071 -7.1066364,0 C 0.88733197,6.9093239 1.3467198,12.700327 5.2075831,15.965349 Z" />
	<path d="M 4.8480378,15.653735 C 3,10.999999 2.1168455,4.9048501 6.7347007,2.719407 7.0677841,2.5617722 8.9904987,2.8097 8.9904987,3.1819586 l 0,2.5160383 c 0,0.3025458 -0.3881777,0.4158257 -0.6175659,0.404746 L 5.3680195,5.9682739 4.8378214,7.9935051 C 5.2069069,7.8620513 5.4508388,7.7748404 5.9310747,7.7748404 l 3.059424,0 0,4.4205036 c 0,0.663691 -0.1525452,2.024594 -0.7114522,2.414212 l 4.7531165,0 c 0.643651,0 0.751239,-0.100677 1.061205,0.312748 0.691155,-1.322995 0.988454,-2.407829 1.39839,-3.718311 -1.18829,1.386674 -2.324304,2.190671 -3.121054,2.191113 -0.861264,4.76e-4 -1.364053,-0.432288 -1.364053,-1.499966 l 0,-10.90489903 -7.1066286,0 C 0.26411925,6.2621418 0.98717452,12.388713 4.8480378,15.653735 Z" style="fill:#b06e30" />
	<path d="M 3.9003906 0.99023438 C 1.7994543 4.0364973 1.1620546 7.3656055 1.7363281 10.265625 C 1.6633308 7.3228524 2.7305921 4.2508151 5.0117188 1.9453125 L 9.0351562 1.9882812 L 10.984375 1.9960938 L 11.005859 0.99023438 L 3.9003906 0.99023438 z" style="fill:#ebb64e" />
  <path d="m 15.491759,11.203993 c -1.18829,1.386674 -2.324304,2.190671 -3.121054,2.191113 1.434491,0.374709 1.723272,0.266753 3.121054,-2.191113 z" style="fill:#ebb64e" />
  <path d="M 8.3729328,6.1027429 5.3680195,5.9682739 c 0.384523,1.1595593 3.0475622,0.6346952 3.0049133,0.134469 z" style="fill:#ebb64e" />
</svg>
